<svg xmlns="http://www.w3.org/2000/svg" width="736" height="417" fill="none"><path fill="#323237" d="M.577 190.545h246.319v225.792H.577z"/><path fill="#78787D" d="M488.729 190.545h246.319v225.792H488.729z"/><path fill="#505055" d="M246.896 190.545h246.319v225.792H246.896z"/><path fill="#243A5E" d="M.577.838h246.319v207.749H.577z"/><path fill="#156AB3" d="M488.729.838h246.319v207.749H488.729z"/><path fill="#1D4A79" d="M246.896.838h246.319v207.749H246.896z"/><path fill="#fff" d="M169.844 96.952h-18.321v.876h18.321v-.876z"/><path fill="#fff" d="M168.879 93.884l5.961 3.506-5.961 3.506v-7.012zM174.577 103.614h-18.32v.876h18.32v-.876z"/><path fill="#fff" d="M157.221 107.558l-6.048-3.506 6.048-3.506v7.012zM91.127 96.952h-18.32v.876h18.32v-.876z"/><path fill="#fff" d="M90.163 93.884l6.049 3.506-6.049 3.506v-7.012zM95.861 103.614h-18.32v.876h18.32v-.876z"/><path fill="#fff" d="M78.592 107.558l-6.048-3.506 6.048-3.506v7.012zM131.801 91.166a.847.847 0 00-1.227 0 .793.793 0 00-.263.614c0 .263.087.438.263.614l7.976 7.889c.351.35.351.876 0 1.315l-8.152 8.152c-.35.35-.35.876 0 1.315.351.263.877.263 1.227 0l9.555-9.467c.263-.351.263-.877 0-1.315l-9.379-9.117zM108.922 101.598c-.351-.351-.351-.877 0-1.315l7.889-7.89a.797.797 0 00.263-.613.797.797 0 00-.263-.614.847.847 0 00-1.227 0l-9.379 9.117c-.263.35-.263.876 0 1.315l9.467 9.467c.35.263.876.263 1.227 0 .35-.351.35-.877 0-1.315l-7.977-8.152z"/><path fill="#fff" d="M118.126 115.711l13.412-19.022h-6.487l6.312-9.73h-9.555l-5.084 14.463 6.223.088-4.821 14.201zM53.172 91.166a.847.847 0 00-1.227 0 .796.796 0 00-.263.614c0 .263.087.438.263.614l7.977 7.889c.35.35.35.876 0 1.315l-8.153 8.152c-.35.35-.35.876 0 1.315.351.263.877.263 1.227 0l9.555-9.467c.263-.351.263-.877 0-1.315l-9.38-9.117zM30.293 101.598c-.35-.351-.35-.877 0-1.315l7.89-7.89a.796.796 0 00.262-.613.796.796 0 00-.263-.614.848.848 0 00-1.227 0l-9.38 9.117c-.262.35-.262.876 0 1.315l9.468 9.467c.35.263.876.263 1.227 0 .35-.351.35-.877 0-1.315l-7.977-8.152z"/><path fill="#fff" d="M39.41 115.711L52.82 96.689h-6.486l6.31-9.73H43.18l-5.084 14.376 6.223.087-4.908 14.289zM210.518 91.166a.848.848 0 00-1.228 0 .797.797 0 00-.263.614c0 .263.088.438.263.614l7.977 7.889c.351.35.351.876 0 1.315l-8.152 8.152c-.351.35-.351.876 0 1.315.351.263.877.263 1.227 0l9.555-9.467c.263-.351.263-.877 0-1.315l-9.379-9.117zM187.639 101.598c-.351-.351-.351-.877 0-1.315l7.889-7.89a.797.797 0 00.263-.613.797.797 0 00-.263-.614.847.847 0 00-1.227 0l-9.38 9.117c-.263.35-.263.876 0 1.315l9.467 9.467c.351.263.877.263 1.228 0 .35-.351.35-.877 0-1.315l-7.977-8.152z"/><path fill="#fff" d="M196.843 115.711l13.324-19.022h-6.487l6.312-9.73H200.525l-5.085 14.376 6.224.087-4.821 14.289zM140.819 307.172h-18.321v.876h18.321v-.876z"/><path fill="#fff" d="M139.854 304.192l5.961 3.418-5.961 3.506v-6.924zM145.553 313.834h-18.321v.876h18.321v-.876z"/><path fill="#fff" d="M128.196 317.778l-5.961-3.506 5.961-3.418v6.924zM91.994 301.036a.847.847 0 00-1.228 0 .794.794 0 00-.263.613c0 .263.088.439.263.614l7.977 7.889c.35.351.35.877 0 1.315l-8.152 8.152c-.35.351-.35.877 0 1.315.35.263.877.263 1.227 0l9.555-9.467c.263-.351.263-.876 0-1.315l-9.38-9.116zM69.115 311.555c-.35-.351-.35-.877 0-1.315l7.889-7.889a.797.797 0 00.263-.614.794.794 0 00-.263-.613.847.847 0 00-1.227 0l-9.38 9.116c-.263.351-.263.877 0 1.315l9.468 9.467c.35.263.876.263 1.227 0 .35-.351.35-.877 0-1.315l-7.977-8.152z"/><path fill="#fff" d="M78.231 325.668l13.412-19.022h-6.487l6.312-9.73H82l-5.085 14.376 6.224.087-4.909 14.289zM180.615 300.51a.847.847 0 00-1.227 0 .795.795 0 00-.263.613c0 .263.088.439.263.614l7.977 7.889c.351.351.351.877 0 1.315l-8.152 8.152c-.351.351-.351.877 0 1.315.35.263.876.263 1.227 0l9.555-9.467c.263-.351.263-.876 0-1.315l-9.38-9.116zM157.737 310.941c-.351-.351-.351-.876 0-1.315l7.889-7.889a.797.797 0 00.263-.614.795.795 0 00-.263-.613.847.847 0 00-1.227 0l-9.38 9.116c-.262.351-.262.877 0 1.315l9.468 9.467c.35.263.876.263 1.227 0 .35-.35.35-.876 0-1.315l-7.977-8.152z"/><path fill="#fff" d="M166.941 325.142l13.412-19.022h-6.487l6.312-9.73H170.711l-5.085 14.376 6.224.087-4.909 14.289zM83.841 337.94c-5.785 0-11.22-1.841-15.866-5.26-.175-.175-.263-.438-.087-.613.175-.176.438-.263.613-.088 4.47 3.331 9.73 5.084 15.34 5.084 8.59 0 16.655-4.295 21.389-11.483.175-.175.438-.263.613-.088.176.176.263.439.088.614-4.909 7.451-13.149 11.834-22.09 11.834zM109.438 317.253h-.088c-.263-.088-.351-.263-.351-.526.351-1.754.526-3.507.526-5.348 0-14.2-11.57-25.683-25.683-25.683-.263 0-.439-.176-.439-.439s.176-.438.439-.438c14.639 0 26.56 11.922 26.56 26.56 0 1.841-.175 3.682-.614 5.523 0 .263-.175.351-.35.351zM61.664 325.755c-.176 0-.263-.087-.351-.175a26.673 26.673 0 01-4.032-14.113c0-11.133 7.012-21.126 17.444-24.982.263-.088.438 0 .526.263.087.262 0 .438-.263.525-10.081 3.682-16.83 13.412-16.83 24.106 0 4.822 1.314 9.555 3.944 13.675a.463.463 0 01-.175.614c-.088.087-.176.087-.263.087z"/><path fill="#fff" d="M87.523 289.29l-6.399-3.682 6.4-3.769v7.451zM64.206 321.285v7.451l-6.487-3.77 6.487-3.681zM100.935 326.72l6.486-3.682v7.451l-6.486-3.769zM340.076 100.546h-25.333v.876h25.333v-.876z"/><path fill="#fff" d="M339.112 97.478l5.961 3.506-5.961 3.506v-7.012zM421.511 100.546h-25.333v.876h25.333v-.876z"/><path fill="#fff" d="M420.459 97.478l6.048 3.506-6.048 3.506v-7.012zM377.331 91.079a.847.847 0 00-1.227 0 .793.793 0 00-.263.613c0 .263.087.439.263.614l7.977 7.889c.35.351.35.877 0 1.315l-8.152 8.152c-.351.351-.351.877 0 1.315.35.263.876.263 1.227 0l9.554-9.467c.263-.351.263-.877 0-1.315l-9.379-9.116zM354.452 101.51c-.35-.351-.35-.877 0-1.315l7.889-7.889a.794.794 0 00.263-.614.793.793 0 00-.263-.613.847.847 0 00-1.227 0l-9.379 9.116c-.263.351-.263.877 0 1.315l9.467 9.467c.351.263.876.263 1.227 0 .351-.351.351-.876 0-1.315l-7.977-8.152z"/><path fill="#fff" d="M363.569 115.623l13.411-19.022h-6.486l6.311-9.73H367.338l-5.084 14.376 6.224.088-4.909 14.288zM377.331 51.633a.847.847 0 00-1.227 0 .793.793 0 00-.263.613c0 .263.087.438.263.614l7.977 7.889c.35.35.35.877 0 1.315l-8.152 8.152c-.351.35-.351.877 0 1.315.35.263.876.263 1.227 0l9.554-9.467c.263-.35.263-.877 0-1.315l-9.379-9.116zM354.452 62.064c-.35-.35-.35-.877 0-1.315l7.889-7.89a.793.793 0 00.263-.613.793.793 0 00-.263-.613.847.847 0 00-1.227 0l-9.379 9.116c-.263.35-.263.877 0 1.315l9.467 9.467c.351.263.876.263 1.227 0 .351-.35.351-.877 0-1.315l-7.977-8.152z"/><path fill="#fff" d="M363.569 76.264l13.411-19.021h-6.486l6.311-9.73H367.338l-5.084 14.376 6.224.087-4.909 14.288zM377.331 130.525a.847.847 0 00-1.227 0 .792.792 0 00-.263.613c0 .263.087.439.263.614l7.977 7.889c.35.351.35.877 0 1.315l-8.152 8.152c-.351.351-.351.877 0 1.315.35.263.876.263 1.227 0l9.554-9.467c.263-.351.263-.876 0-1.315l-9.379-9.116zM354.452 140.956c-.35-.351-.35-.876 0-1.315l7.889-7.889a.794.794 0 00.263-.614.792.792 0 00-.263-.613.847.847 0 00-1.227 0l-9.379 9.116c-.263.351-.263.877 0 1.315l9.467 9.467c.351.263.876.263 1.227 0 .351-.35.351-.876 0-1.315l-7.977-8.152z"/><path fill="#fff" d="M363.569 155.157l13.411-19.022h-6.486l6.311-9.73H367.338l-5.084 14.376 6.224.087-4.909 14.289zM298.614 91.079a.847.847 0 00-1.227 0 .797.797 0 00-.263.613c0 .263.088.439.263.614l7.977 7.889c.351.351.351.877 0 1.315l-8.152 8.152c-.351.351-.351.877 0 1.315.35.263.876.263 1.227 0l9.555-9.467c.263-.351.263-.877 0-1.315l-9.38-9.116zM275.735 101.51c-.35-.351-.35-.877 0-1.315l7.89-7.889a.797.797 0 00.263-.614.797.797 0 00-.263-.613.848.848 0 00-1.228 0l-9.379 9.116c-.263.351-.263.877 0 1.315l9.467 9.467c.351.263.877.263 1.227 0 .351-.351.351-.876 0-1.315l-7.977-8.152z"/><path fill="#fff" d="M284.94 115.623l13.412-19.022h-6.487l6.311-9.73H288.709l-5.084 14.376 6.224.088-4.909 14.288zM457.713 91.079a.847.847 0 00-1.227 0 .797.797 0 00-.263.613c0 .263.088.439.263.614l7.977 7.889c.351.351.351.877 0 1.315l-8.152 8.152c-.351.351-.351.877 0 1.315.35.263.876.263 1.227 0l9.555-9.467c.263-.351.263-.877 0-1.315l-9.38-9.116zM434.835 101.51c-.351-.351-.351-.877 0-1.315l7.889-7.889a.797.797 0 00.263-.614.797.797 0 00-.263-.613.847.847 0 00-1.227 0l-9.38 9.116c-.263.351-.263.877 0 1.315l9.467 9.467c.351.263.877.263 1.227 0 .351-.351.351-.876 0-1.315l-7.976-8.152z"/><path fill="#fff" d="M444.039 115.623l13.412-19.022h-6.487l6.311-9.73H447.808l-5.084 14.376 6.224.088-4.909 14.288zM341.654 141.307h-9.993c-3.769 0-6.837-3.068-6.837-6.838V68.112c0-3.77 3.068-6.837 6.837-6.837h9.993v.877h-9.993c-3.243 0-5.961 2.63-5.961 5.96v66.357c0 3.244 2.63 5.961 5.961 5.961h9.993v.877zM405.469 141.307h-9.993v-.877h9.993c3.243 0 5.961-2.63 5.961-5.961v-27.962h.876v27.962c0 3.77-3.068 6.838-6.837 6.838zM412.306 95.462h-.876v-27.35c0-3.243-2.63-5.96-5.961-5.96h-9.993v-.877h9.993c3.769 0 6.837 3.068 6.837 6.837v27.35z"/><path fill="#fff" d="M339.112 58.295l5.961 3.418-5.961 3.507v-6.925zM339.112 137.45l5.961 3.418-5.961 3.507v-6.925zM415.287 91.079l-3.419 5.96-3.506-5.96h6.925zM408.362 111.065l3.506-6.049 3.419 6.049h-6.925zM381.264 315.894h-18.32v.876h18.32v-.876z"/><path fill="#fff" d="M380.3 312.914l5.961 3.418-5.961 3.507v-6.925zM385.998 322.556h-18.32v.876h18.32v-.876z"/><path fill="#fff" d="M368.642 326.5l-5.961-3.506 5.961-3.419v6.925zM381.09 295.557h-18.321v.877h18.321v-.877z"/><path fill="#fff" d="M380.125 292.489l6.048 3.506-6.048 3.507v-7.013zM429.038 297.31a.848.848 0 00-1.227 0 .799.799 0 00-.263.614c0 .263.088.438.263.614l7.977 7.889c.35.35.35.876 0 1.315l-8.152 8.152c-.351.35-.351.876 0 1.315.35.263.876.263 1.227 0l9.554-9.467c.263-.351.263-.877 0-1.315l-9.379-9.117zM406.159 307.742c-.35-.351-.35-.877 0-1.315l7.889-7.889a.795.795 0 00.263-.614.795.795 0 00-.263-.614.848.848 0 00-1.227 0l-9.379 9.117c-.263.35-.263.876 0 1.315l9.467 9.467c.351.263.877.263 1.227 0 .351-.351.351-.877 0-1.315l-7.977-8.152z"/><path fill="#fff" d="M429.214 302.219h-6.75l6.574-10.08-6.574 10.08h-.175l6.749-10.343h-10.08l-5.435 15.427 6.662.088-5.172 15.253 14.113-20.074h.263-.263l.088-.351zM347.341 308.969v-4.471c0-.613-.438-1.052-1.052-1.052h-2.104c-.175 0-.262 0-.438-.087-.438-.175-.701-.526-.876-.877l-2.279-5.347c-.176-.351-.176-.789-.088-1.139.088-.176.175-.263.263-.351l1.49-1.49c.438-.439.438-1.052 0-1.49l-3.156-3.156c-.087-.088-.263-.175-.438-.263-.351-.175-.877-.088-1.14.175l-1.402 1.403c-.438.438-1.14.526-1.666.263l-6.223-2.455c-.526-.175-.964-.701-.964-1.315v-1.928c0-.614-.439-1.052-1.052-1.052h-4.471c-.438 0-.789.263-.964.701-.088.088-.088.263-.088.439v2.016c0 .613-.438 1.227-1.052 1.402l-5.259 2.279c-.526.263-1.227.176-1.666-.263l-1.402-1.402c-.439-.438-1.052-.438-1.49 0l-3.156 3.156c-.438.438-.438 1.051 0 1.49l1.402 1.402c.439.439.526 1.14.263 1.666l-2.542 6.223c-.175.526-.789.965-1.315 1.052h-1.928c-.438 0-.789.263-.964.614-.088.175-.088.263-.088.438v4.471c0 .613.438 1.052 1.052 1.052h2.104c.175 0 .263 0 .438.087.438.176.701.526.877.877l2.279 5.347c.175.351.175.789.087 1.14a1.184 1.184 0 01-.263.35l-1.49 1.49c-.438.439-.438 1.052 0 1.491l3.156 3.155c.088.088.263.176.438.263.351.176.877.088 1.14-.175l1.402-1.403c.439-.438 1.14-.525 1.666-.263l6.224 2.455c.525.175.964.701.964 1.315v1.928c0 .614.438 1.052 1.052 1.052h4.47c.438 0 .789-.263.964-.701.088-.088.088-.263.088-.438v-2.017c0-.613.438-1.227 1.052-1.402l5.259-2.279c.526-.263 1.228-.175 1.666.263l1.402 1.402c.439.439 1.052.439 1.491 0l3.155-3.155c.439-.439.439-1.052 0-1.491l-1.402-1.402c-.438-.438-.526-1.14-.263-1.666l2.542-6.223c.175-.526.789-.965 1.315-1.052h1.928c.439 0 .789-.263.965-.614 0-.087.087-.263.087-.438zm-12.36 8.766a14.867 14.867 0 01-21.125 0c-3.331-3.331-4.734-7.802-4.295-12.097.35-3.243 1.753-6.487 4.295-8.941a14.867 14.867 0 0121.125 0c3.331 3.331 4.734 7.801 4.296 12.097-.351 3.331-1.754 6.486-4.296 8.941z"/><path fill="#fff" d="M323.235 311.248h-1.315l-.701-1.841h-2.893l-.613 1.841h-1.315l2.717-7.363h1.403l2.717 7.363zm-2.279-2.893l-1.052-2.98c0-.088-.087-.263-.087-.438 0 .175-.088.35-.088.438l-1.052 2.98h2.279zM325.514 308.531v2.629h-1.227v-7.363h2.192c.876 0 1.49.175 1.928.614.438.438.701.964.701 1.665 0 .701-.263 1.315-.701 1.753-.438.439-1.14.702-1.928.702h-.965zm0-3.682v2.717h.789c.526 0 .964-.087 1.227-.35.263-.263.439-.614.439-1.052 0-.877-.526-1.315-1.49-1.315h-.965zM331.651 311.248h-1.228v-7.363h1.228v7.363zM365.837 285.652V284.6c.088.088.175.175.351.263.087.088.263.088.438.175.175.088.263.088.438.088h.351c.438 0 .701-.088.964-.175a.799.799 0 00.263-.614c0-.175 0-.263-.088-.351l-.263-.263c-.087-.087-.263-.175-.438-.263l-.526-.263a1.824 1.824 0 01-.526-.35c-.175-.088-.35-.263-.438-.351-.088-.175-.263-.263-.263-.438-.088-.175-.088-.351-.088-.614s.088-.526.176-.701c.087-.175.263-.351.525-.526.176-.175.439-.263.702-.263.263-.088.526-.088.789-.088.613 0 1.052.088 1.315.176v.964c-.351-.263-.789-.351-1.315-.351h-.439c-.175 0-.263.088-.35.176l-.263.263c-.088.087-.088.175-.088.35 0 .176 0 .263.088.351l.263.263c.087.088.263.175.35.263l.526.263c.176.087.439.263.614.35.175.088.351.263.526.351.175.175.263.263.351.438.087.176.087.351.087.614s-.087.526-.175.789c-.088.175-.263.351-.526.526-.175.088-.438.263-.701.263-.263 0-.526.088-.877.088h-.351c-.175 0-.263 0-.438-.088-.175 0-.263-.088-.438-.088-.351-.087-.438-.175-.526-.175zM372.587 285.827a1.651 1.651 0 01-.701.176c-.789 0-1.228-.351-1.228-1.14v-2.367h-.701v-.789h.701v-.964l.965-.263v1.227h1.051v.789h-1.051v2.104c0 .263.087.438.175.526a.668.668 0 00.438.175c.175 0 .263-.087.438-.175v.701h-.087zM376.619 285.827h-.964v-.701c-.263.526-.702.789-1.315.789-.439 0-.701-.088-.964-.351s-.351-.526-.351-.876c0-.789.438-1.228 1.402-1.403l1.228-.175c0-.614-.263-.877-.877-.877-.526 0-.964.175-1.402.526v-.876a3.025 3.025 0 011.577-.439c1.052 0 1.578.526 1.578 1.578v2.805h.088zm-.877-2.016l-.876.088c-.263 0-.439.087-.614.175s-.175.263-.175.526c0 .175.087.351.175.438.088.088.263.175.526.175s.526-.087.701-.35c.176-.175.263-.438.263-.789v-.263zM380.213 282.584c-.088-.088-.263-.175-.526-.175s-.526.087-.701.35c-.176.263-.263.614-.263 1.052v2.016h-.965v-4.207h.965v.876c.087-.263.262-.526.438-.701a.947.947 0 01.613-.263c.176 0 .263 0 .439.088v.964zM383.369 285.827a1.652 1.652 0 01-.702.176c-.789 0-1.227-.351-1.227-1.14v-2.367h-.701v-.789h.701v-.964l.964-.263v1.227h1.052v.789h-1.052v2.104c0 .263.088.438.176.526a.666.666 0 00.438.175c.175 0 .263-.087.438-.175v.701h-.087zM360.226 339.211c-.613.35-1.314.526-2.103.526-.877 0-1.578-.263-2.104-.789s-.789-1.227-.789-2.192c0-.876.263-1.665.877-2.279.613-.613 1.314-.876 2.279-.876.701 0 1.227.087 1.665.263v1.052c-.438-.263-.964-.439-1.665-.439-.614 0-1.14.176-1.578.614-.438.438-.614.964-.614 1.578 0 .701.176 1.227.526 1.578.351.35.789.613 1.403.613.438 0 .789-.087 1.052-.263v-1.402h-1.228v-.789h2.192v2.805h.087zM364.96 337.808h-2.892c0 .351.087.702.35.877.263.175.526.351.965.351.438 0 .876-.176 1.227-.439v.789c-.351.263-.877.351-1.49.351-.614 0-1.14-.176-1.491-.614-.35-.438-.525-.964-.525-1.578 0-.701.175-1.227.613-1.578.351-.438.877-.613 1.49-.613.614 0 1.052.175 1.315.526.351.35.438.876.438 1.578v.35zm-.964-.701c0-.351-.087-.614-.263-.789-.175-.175-.35-.263-.701-.263-.263 0-.526.088-.701.263a1.107 1.107 0 00-.351.789h2.016zM368.116 339.649a1.644 1.644 0 01-.701.175c-.789 0-1.227-.35-1.227-1.139v-2.367h-.702v-.789h.702v-1.052l.964-.263v1.228h1.052v.788h-1.052v2.104c0 .263.087.439.175.526a.669.669 0 00.438.176c.176 0 .263-.088.439-.176v.789h-.088zM371.096 339.386v-1.052c.088.088.176.176.351.263.087.088.263.088.438.176.175.087.263.087.438.087h.351c.438 0 .701-.087.964-.175a.794.794 0 00.263-.614c0-.175 0-.263-.087-.35l-.263-.263c-.088-.088-.263-.176-.439-.263l-.526-.263a1.863 1.863 0 01-.526-.351c-.175-.088-.35-.263-.438-.351-.088-.175-.263-.263-.263-.438-.088-.175-.088-.35-.088-.613s.088-.526.176-.702c.087-.175.263-.35.526-.526.175-.175.438-.263.701-.263.263-.087.526-.087.789-.087.614 0 1.052.087 1.315.175v.964c-.351-.263-.789-.35-1.315-.35h-.438c-.176 0-.263.087-.351.175l-.263.263c-.088.088-.088.175-.088.351 0 .175 0 .263.088.35l.263.263c.088.088.263.175.351.263l.526.263c.175.088.438.263.613.351.176.087.351.263.526.35.175.176.263.263.351.439.087.175.087.35.087.613s-.087.526-.175.789c-.088.175-.263.351-.526.526-.175.088-.438.263-.701.263-.263 0-.526.088-.877.088h-.35c-.176 0-.263 0-.439-.088-.175 0-.263-.088-.438-.088-.35-.087-.438-.087-.526-.175zM377.846 339.649a1.652 1.652 0 01-.702.175c-.789 0-1.227-.35-1.227-1.139v-2.367h-.701v-.789h.701v-1.052l.964-.263v1.228h1.052v.788h-1.052v2.104c0 .263.088.439.176.526a.667.667 0 00.438.176c.175 0 .263-.088.438-.176v.789h-.087zM381.878 339.649h-.964v-.701c-.263.526-.701.789-1.315.789-.438 0-.701-.088-.964-.351s-.351-.526-.351-.876c0-.789.438-1.228 1.403-1.403l1.227-.175c0-.614-.263-.877-.877-.877-.526 0-.964.176-1.402.526v-.876a3.026 3.026 0 011.578-.439c1.052 0 1.577.526 1.577 1.578v2.805h.088zm-.876-2.104l-.877.088c-.263 0-.438.088-.614.175-.175.088-.175.263-.175.526 0 .176.088.351.175.439.088.087.263.175.526.175s.526-.088.702-.351c.175-.175.263-.438.263-.789v-.263zM385.297 339.649a1.652 1.652 0 01-.702.175c-.788 0-1.227-.35-1.227-1.139v-2.367h-.701v-.789h.701v-1.052l.965-.263v1.228h1.051v.788h-1.051v2.104c0 .263.087.439.175.526a.667.667 0 00.438.176c.175 0 .263-.088.438-.176v.789h-.087zM389.855 339.649h-.964v-.701c-.263.526-.701.789-1.315.789-.964 0-1.49-.614-1.49-1.841v-2.542h.964v2.454c0 .789.263 1.14.877 1.14.263 0 .526-.088.701-.351.175-.175.263-.526.263-.789v-2.454h.964v4.295zM390.819 339.561v-.876c.351.263.789.438 1.228.438.613 0 .876-.175.876-.526 0-.087 0-.175-.088-.263l-.175-.175c-.088-.088-.175-.088-.263-.175-.087 0-.263-.088-.35-.176-.176-.087-.351-.175-.439-.175a1.201 1.201 0 01-.35-.263c-.088-.088-.176-.175-.176-.351-.087-.087-.087-.263-.087-.438s.087-.351.175-.526c.088-.175.263-.263.351-.35l.526-.263c.175-.088.438-.088.613-.088.351 0 .701.088 1.052.175v.877c-.263-.176-.614-.263-1.052-.263h-.35c-.088 0-.176.087-.263.087l-.176.176c0 .087-.087.087-.087.175s0 .175.087.263l.176.175c.087.088.175.088.263.176.087.087.262.087.35.087l.526.263c.175.088.263.176.351.263.087.088.175.176.263.351.087.175.087.263.087.438 0 .176-.087.439-.175.526-.088.175-.263.263-.438.438-.176.176-.351.176-.614.263-.175.088-.438.088-.701.088-.438-.175-.789-.263-1.14-.351zM569.637 307.961h-10.431v.877h10.431v-.877zM664.132 307.961h-10.431v.877h10.431v-.877z"/><path fill="#fff" d="M663.168 304.893l6.048 3.506-6.048 3.419v-6.925zM588.747 341.709h-12.623a6.846 6.846 0 01-6.837-6.837V282.54a6.846 6.846 0 016.837-6.837h12.623v.876h-12.623c-3.243 0-5.961 2.63-5.961 5.961v52.332c0 3.243 2.63 5.961 5.961 5.961h12.623v.876zM648.178 341.709h-12.622v-.876h12.622c3.244 0 5.961-2.63 5.961-5.961v-20.95h.877v20.95c0 3.769-3.068 6.837-6.838 6.837zM655.016 302.789h-.877v-20.337c0-3.243-2.63-5.96-5.961-5.96h-12.622v-.877h12.622c3.77 0 6.838 3.068 6.838 6.837v20.337z"/><path fill="#fff" d="M586.205 272.635l5.96 3.506-5.96 3.506v-7.012zM586.205 337.765l5.96 3.506-5.96 3.506v-7.012zM657.996 298.406l-3.418 6.049-3.507-6.049h6.925zM651.071 318.48l3.507-6.048 3.418 6.048h-6.925zM702.877 298.669a.848.848 0 00-1.227 0 .795.795 0 00-.263.614c0 .263.087.438.263.613l7.977 7.89c.35.35.35.876 0 1.315l-8.153 8.152c-.35.35-.35.876 0 1.315.351.263.877.263 1.228 0l9.554-9.467c.263-.351.263-.877 0-1.315l-9.379-9.117zM679.999 309.101c-.351-.351-.351-.877 0-1.315l7.889-7.89a.795.795 0 00.263-.613.799.799 0 00-.263-.614.848.848 0 00-1.227 0l-9.38 9.117c-.263.35-.263.876 0 1.315l9.467 9.467c.351.263.877.263 1.227 0 .351-.351.351-.877 0-1.315l-7.976-8.152z"/><path fill="#fff" d="M689.203 323.301l13.411-19.022h-6.486l6.311-9.73H692.972l-5.084 14.376 6.223.088-4.908 14.288zM544.129 298.669a.848.848 0 00-1.227 0 .795.795 0 00-.263.614c0 .263.087.438.263.613l7.977 7.89c.35.35.35.876 0 1.315l-8.153 8.152c-.35.35-.35.876 0 1.315.351.263.877.263 1.228 0l9.554-9.467c.263-.351.263-.877 0-1.315l-9.379-9.117zM521.25 309.101c-.351-.351-.351-.877 0-1.315l7.889-7.89a.792.792 0 00.263-.613.795.795 0 00-.263-.614.848.848 0 00-1.227 0l-9.379 9.117c-.263.35-.263.876 0 1.315l9.467 9.467c.35.263.876.263 1.227 0 .351-.351.351-.877 0-1.315l-7.977-8.152z"/><path fill="#fff" d="M530.367 323.301l13.411-19.022h-6.486l6.311-9.73H534.136l-5.084 14.376 6.224.088-4.909 14.288zM605.664 346.18h-4.12v1.753h4.12v-1.753zM615.018 359.561v-4.12h-1.754v4.12h1.754zM614.08 348.547a1.666 1.666 0 10-.002-3.332 1.666 1.666 0 00.002 3.332z"/><path fill="#fff" d="M614.08 330.84a16.087 16.087 0 00-16.129 16.129 16.087 16.087 0 0016.129 16.129 16.087 16.087 0 0016.129-16.129 16.087 16.087 0 00-16.129-16.129zm0 30.242c-7.802 0-14.201-6.399-14.201-14.201 0-7.802 6.399-14.201 14.201-14.201 7.801 0 14.2 6.399 14.2 14.201a14.142 14.142 0 01-14.2 14.201z"/><path fill="#fff" d="M614.167 335.924h-.175c-.263 0-.439.175-.526.438l-.351 9.292h1.929l-.439-9.292c.088-.263-.175-.438-.438-.438zM625.125 347.056v-.175c0-.263-.176-.438-.439-.526l-9.291-.35v1.928l9.291-.438c.263 0 .439-.176.439-.439zM598.652 292.095c0-8.503 6.925-15.428 15.428-15.428 8.502 0 15.427 6.925 15.427 15.428h-30.855zM622.846 265.447c0 4.821-3.945 8.766-8.766 8.766s-8.766-3.945-8.766-8.766 3.945-8.766 8.766-8.766c4.821.088 8.766 3.945 8.766 8.766zM661.425 91.265a.847.847 0 00-1.227 0 .797.797 0 00-.263.614c0 .262.088.438.263.613l7.977 7.889c.351.351.351.877 0 1.315l-8.152 8.152c-.351.351-.351.877 0 1.315.35.263.876.263 1.227 0l9.555-9.467c.263-.35.263-.876 0-1.315l-9.38-9.116zM638.546 101.696c-.35-.35-.35-.876 0-1.315l7.89-7.889a.797.797 0 00.263-.614.797.797 0 00-.263-.613.848.848 0 00-1.228 0l-9.379 9.116c-.263.351-.263.877 0 1.315l9.467 9.467c.351.263.877.263 1.227 0 .351-.35.351-.876 0-1.315l-7.977-8.152z"/><path fill="#fff" d="M646.874 117.825l10.519-19.021-7.1-.088 5.961-13.675h-5.172l-5.786 16.392 7.101.088-5.523 16.304z"/><path fill="#FF8B00" d="M654.676 96.086l7.188-11.045-7.188 11.045zM662.127 96.174l-15.253 21.651 15.253-21.651z"/><path fill="#fff" d="M657.393 98.803l-10.519 19.022 15.253-21.651h-7.451l7.188-11.045h-5.611l-5.96 13.674h7.1zM624.259 100.732h-34.976v.877h34.976v-.877z"/><path fill="#fff" d="M623.294 97.664l6.048 3.506-6.048 3.507v-7.013zM608.217 141.493h-19.635v-.877h19.635c3.244 0 5.961-2.629 5.961-5.96v-27.963h.877v27.963c0 3.769-3.068 6.837-6.838 6.837zM615.055 95.648h-.877v-27.35c0-3.243-2.63-5.96-5.961-5.96h-19.635v-.877h19.635c3.77 0 6.838 3.068 6.838 6.838v27.349z"/><path fill="#fff" d="M618.122 91.265l-3.506 5.96-3.419-5.96h6.925zM611.197 111.251l3.419-6.048 3.506 6.048h-6.925zM573.329 107.569a2.064 2.064 0 012.893 0 2.064 2.064 0 010 2.893 2.064 2.064 0 01-2.893 0 2.064 2.064 0 010-2.893zM555.447 107.569a2.064 2.064 0 012.893 0 2.064 2.064 0 010 2.893 2.064 2.064 0 01-2.893 0c-.789-.789-.789-2.016 0-2.893z"/><path fill="#fff" d="M564.739 108.008a1.376 1.376 0 00-1.929 0c-.175.175-.263.438-.35.613h-1.403c-.088-.964-.526-1.841-1.227-2.542a3.43 3.43 0 00-1.403-.876l.877-1.403a.964.964 0 00.701 0c.702-.175 1.227-.877 1.052-1.665-.175-.702-.876-1.228-1.665-1.052-.702.175-1.228.876-1.052 1.665.087.263.175.438.35.614l-.964 1.578c-1.315-.263-2.805.087-3.769 1.139-1.578 1.578-1.578 4.295 0 5.873 1.578 1.578 4.295 1.578 5.873 0a4.333 4.333 0 001.227-2.629h1.315c.088.263.175.438.351.613a1.375 1.375 0 001.928 0c.614-.438.614-1.315.088-1.928zm-5.523 3.331c-1.227 1.227-3.331 1.227-4.558 0-1.227-1.228-1.227-3.331 0-4.559 1.227-1.227 3.331-1.227 4.558 0 1.228 1.228 1.228 3.331 0 4.559zM564.388 92.23a2.064 2.064 0 012.893 0 2.064 2.064 0 010 2.892 2.064 2.064 0 01-2.893 0c-.789-.79-.789-2.016 0-2.893z"/><path fill="#fff" d="M569.998 97.576c-.263-.087-.526-.087-.701 0l-.526-.876c1.577-1.578 1.577-4.296 0-5.873-1.578-1.578-4.296-1.578-5.873 0-1.578 1.578-1.578 4.295 0 5.873l-.526.876a.97.97 0 00-.702 0c-.701.176-1.227.877-1.052 1.666.176.701.877 1.227 1.666 1.052.701-.176 1.227-.877 1.052-1.666-.088-.263-.175-.438-.351-.613l.526-.79c1.403.965 3.331 1.053 4.734 0l.526.79c-.176.175-.263.35-.351.613a1.386 1.386 0 001.052 1.666 1.385 1.385 0 001.665-1.052c.088-.79-.35-1.49-1.139-1.666zM563.511 96c-1.227-1.228-1.227-3.331 0-4.559 1.227-1.227 3.331-1.227 4.558 0 1.228 1.228 1.228 3.331 0 4.559-1.227 1.227-3.243 1.227-4.558 0zM577.712 106.079c-1.052-1.052-2.542-1.402-3.857-1.139l-.964-1.578c.175-.176.263-.351.35-.614a1.383 1.383 0 00-1.051-1.665 1.385 1.385 0 00-1.666 1.051 1.385 1.385 0 001.052 1.666c.263.088.526.088.701 0l.877 1.49c-.526.175-.964.526-1.315.877a4.328 4.328 0 00-1.227 2.629h-1.403c-.087-.263-.175-.438-.35-.613a1.376 1.376 0 00-1.929 0 1.375 1.375 0 000 1.928 1.376 1.376 0 001.929 0c.175-.175.263-.438.35-.613h1.403c.087.964.438 1.841 1.227 2.629 1.578 1.666 4.208 1.666 5.873 0 1.578-1.753 1.578-4.382 0-6.048zm-.701 5.26c-1.227 1.227-3.331 1.227-4.558 0-1.228-1.228-1.228-3.331 0-4.559 1.227-1.227 3.331-1.227 4.558 0a3.127 3.127 0 010 4.559zM573.329 142.808a2.064 2.064 0 012.893 0 2.064 2.064 0 010 2.893 2.064 2.064 0 01-2.893 0c-.789-.789-.789-2.017 0-2.893zM555.447 142.896a2.064 2.064 0 012.893 0 2.063 2.063 0 010 2.892 2.064 2.064 0 01-2.893 0 2.063 2.063 0 010-2.892z"/><path fill="#fff" d="M564.739 143.334a1.376 1.376 0 00-1.929 0c-.175.175-.263.438-.35.613h-1.403c-.088-.964-.526-1.84-1.227-2.542a3.43 3.43 0 00-1.403-.876l.877-1.403a.964.964 0 00.701 0c.702-.175 1.227-.876 1.052-1.665-.175-.702-.876-1.228-1.665-1.052-.702.175-1.228.876-1.052 1.665.087.263.175.439.35.614l-.964 1.578c-1.315-.263-2.805.087-3.769 1.139-1.578 1.578-1.578 4.295 0 5.873 1.578 1.578 4.295 1.578 5.873 0a4.333 4.333 0 001.227-2.629h1.315c.088.263.175.438.351.613a1.375 1.375 0 001.928 0 1.304 1.304 0 00.088-1.928zm-5.523 3.243c-1.227 1.227-3.331 1.227-4.558 0-1.227-1.227-1.227-3.331 0-4.558 1.227-1.227 3.331-1.227 4.558 0 1.228 1.315 1.228 3.331 0 4.558zM564.388 127.555a2.066 2.066 0 012.893 0 2.064 2.064 0 010 2.893 2.064 2.064 0 01-2.893 0 2.064 2.064 0 010-2.893z"/><path fill="#fff" d="M569.998 132.815c-.263-.088-.526-.088-.701 0l-.526-.877c1.577-1.578 1.577-4.295 0-5.873-1.578-1.578-4.296-1.578-5.873 0-1.578 1.578-1.578 4.295 0 5.873l-.526.877a.966.966 0 00-.702 0c-.701.175-1.227.876-1.052 1.665.176.789.877 1.228 1.666 1.052.701-.175 1.227-.876 1.052-1.665-.088-.263-.175-.439-.351-.614l.526-.789c1.403.964 3.331 1.052 4.734 0l.526.789c-.176.175-.263.351-.351.614a1.385 1.385 0 001.052 1.665 1.384 1.384 0 001.665-1.052c.088-.701-.35-1.49-1.139-1.665zm-6.487-1.578c-1.227-1.227-1.227-3.331 0-4.558 1.227-1.227 3.331-1.227 4.558 0 1.228 1.227 1.228 3.331 0 4.558-1.227 1.315-3.243 1.315-4.558 0zM577.712 141.405c-1.052-1.052-2.542-1.402-3.857-1.139l-.964-1.578c.175-.175.263-.351.35-.614a1.383 1.383 0 00-1.051-1.665 1.385 1.385 0 00-1.666 1.052 1.385 1.385 0 001.052 1.665c.263.088.526.088.701 0l.877 1.49c-.526.176-.964.526-1.315.877a4.33 4.33 0 00-1.227 2.63h-1.403c-.087-.263-.175-.439-.35-.614a1.376 1.376 0 00-1.929 0 1.376 1.376 0 000 1.929 1.376 1.376 0 001.929 0c.175-.176.263-.439.35-.614h1.403c.087.964.438 1.841 1.227 2.63 1.578 1.665 4.208 1.665 5.873 0 1.578-1.841 1.578-4.471 0-6.049zm-.701 5.172c-1.227 1.227-3.331 1.227-4.558 0-1.228-1.227-1.228-3.331 0-4.558 1.227-1.227 3.331-1.227 4.558 0 1.315 1.315 1.315 3.331 0 4.558zM573.329 71.98a2.064 2.064 0 012.893 0 2.064 2.064 0 010 2.893 2.064 2.064 0 01-2.893 0c-.789-.877-.789-2.104 0-2.893zM555.447 71.98a2.064 2.064 0 012.893 0 2.064 2.064 0 010 2.893 2.064 2.064 0 01-2.893 0 2.064 2.064 0 010-2.893z"/><path fill="#fff" d="M564.739 72.419a1.376 1.376 0 00-1.929 0c-.175.175-.263.438-.35.613h-1.403c-.088-.964-.526-1.84-1.227-2.542a3.43 3.43 0 00-1.403-.876l.877-1.403a.968.968 0 00.701 0c.702-.175 1.227-.877 1.052-1.665-.175-.702-.876-1.228-1.665-1.052-.789.175-1.228.876-1.052 1.665.087.263.175.438.35.614l-.964 1.578c-1.315-.263-2.805.087-3.769 1.14-1.578 1.577-1.578 4.294 0 5.872 1.578 1.578 4.295 1.578 5.873 0a4.335 4.335 0 001.227-2.63h1.315c.088.263.175.439.351.614a1.375 1.375 0 001.928 0 1.304 1.304 0 00.088-1.928zm-5.523 3.243c-1.227 1.227-3.331 1.227-4.558 0-1.227-1.227-1.227-3.331 0-4.558 1.227-1.228 3.331-1.228 4.558 0 1.228 1.315 1.228 3.33 0 4.558zM564.388 56.64a2.064 2.064 0 012.893 0 2.063 2.063 0 010 2.893 2.064 2.064 0 01-2.893 0 2.063 2.063 0 010-2.893z"/><path fill="#fff" d="M569.998 61.9c-.263-.088-.526-.088-.701 0l-.526-.877c1.577-1.578 1.577-4.295 0-5.873-1.578-1.578-4.296-1.578-5.873 0-1.578 1.578-1.578 4.295 0 5.873l-.526.877a.97.97 0 00-.702 0c-.701.175-1.227.876-1.052 1.665.176.789.877 1.227 1.666 1.052.701-.175 1.227-.877 1.052-1.666-.088-.263-.175-.438-.351-.613l.526-.789c1.403.964 3.331 1.052 4.734 0l.526.789c-.176.175-.263.35-.351.614a1.385 1.385 0 001.052 1.665 1.384 1.384 0 001.665-1.052c.088-.701-.35-1.49-1.139-1.665zm-6.487-1.578c-1.227-1.228-1.227-3.331 0-4.559 1.227-1.227 3.331-1.227 4.558 0 1.228 1.228 1.228 3.331 0 4.559-1.227 1.315-3.243 1.315-4.558 0zM577.712 70.49c-1.052-1.052-2.542-1.402-3.857-1.14l-.964-1.577c.175-.176.263-.351.35-.614a1.384 1.384 0 00-1.051-1.665 1.385 1.385 0 00-1.666 1.052 1.385 1.385 0 001.052 1.665c.263.088.526.088.701 0l.877 1.49c-.526.175-.964.526-1.315.877a4.33 4.33 0 00-1.227 2.63h-1.403c-.087-.263-.175-.439-.35-.614a1.376 1.376 0 00-1.929 0 1.376 1.376 0 000 1.928 1.376 1.376 0 001.929 0c.175-.175.263-.438.35-.613h1.403c.087.964.438 1.84 1.227 2.63 1.578 1.665 4.208 1.665 5.873 0 1.578-1.841 1.578-4.471 0-6.049zm-.701 5.172c-1.227 1.227-3.331 1.227-4.558 0-1.228-1.227-1.228-3.331 0-4.558 1.227-1.228 3.331-1.228 4.558 0 1.315 1.314 1.315 3.33 0 4.558z"/></svg>